<svg width="289" height="87" viewBox="0 0 289 87" fill="none" xmlns="http://www.w3.org/2000/svg">
<path d="M88.84 45.2263C88.84 44.7357 88.6587 44.2663 
	88.296 43.8183C87.9333 43.349 87.2933 43.0823 86.376 
	43.0183C85.7787 43.7437 85.0533 44.1063 84.2 44.1063C83.4747 
	44.1063 82.856 43.8503 82.344 43.3383C81.832 42.8263 81.576 42.197 
	81.576 41.4503C81.576 40.7037 81.832 40.0743 82.344 39.5623C82.856 
	39.0503 83.4747 38.7943 84.2 38.7943C84.584 38.7943 84.9573 38.901 
	85.32 39.1143C85.704 39.3277 86.0453 39.5837 86.344 39.8823C86.8133 
	39.861 87.176 39.7863 87.432 39.6583C87.688 39.5303 87.8693 39.381 
	87.976 39.2103C88.104 39.0183 88.1787 38.805 88.2 38.5703C88.2213 
	38.3357 88.232 38.101 88.232 37.8663V34.6343C88.232 34.101 88.0613 
	33.6103 87.72 33.1623C87.4 32.7143 86.8453 32.4903 86.056 
	32.4903H79.368L79.336 53.6103C79.336 54.037 79.1333 54.3677 
	78.728 54.6023C78.344 54.8157 77.9173 54.9223 77.448 
	54.9223C76.1893 54.9223 75.56 54.4103 75.56 53.3863V31.1783C75.56 
	30.4103 75.752 29.8983 76.136 29.6423C76.5413 29.3863 77.0213 29.2583 
	77.576 29.2583H86.856C87.4107 29.2583 87.9973 29.365 88.616 
	29.5783C89.256 29.7917 89.8533 30.0797 90.408 30.4423H90.376C90.9307 
	30.8477 91.336 31.381 91.592 32.0423C91.8693 32.7037 92.008 
	33.4717 92.008 34.3463V37.9623C92.008 38.8157 91.8267 39.5197 
	91.464 40.0743C91.1013 40.6077 90.7173 41.0343 90.312 
	41.3543C90.5893 41.525 90.856 41.7063 91.112 41.8983C91.368 
	42.069 91.5813 42.261 91.752 42.4743C92.0293 42.773 92.2427 
	43.125 92.392 43.5303C92.5627 43.9357 92.648 44.4157 92.648 
	44.9703V49.5463C92.648 51.2957 91.9653 52.5863 90.6 53.4183C89.9173 
	53.845 89.2667 54.165 88.648 54.3783C88.0507 54.5917 87.4533 54.6983 
	86.856 54.6983H82.12C81.7573 54.6983 81.4693 54.549 81.256 54.2503C81.064 
	53.9517 80.968 53.557 80.968 53.0663C80.968 51.9997 81.416 51.4663 82.312 51.4663H86.696C87.4853 51.4663 88.04 51.2423 88.36 50.7943C88.68 50.3463 88.84 49.845 88.84 49.2903V45.2263ZM101.979 54.6663C101.318 54.6663 100.688 54.581 100.091 54.4103C99.4937 54.2183 98.9177 53.9517 98.363 53.6103V53.6423C97.3177 52.981 96.795 51.765 96.795 49.9943V48.4263C96.795 47.5517 96.9443 46.7943 97.243 46.1543C97.563 45.493 98.0003 44.9703 98.555 44.5863H98.523C99.0563 44.2237 99.6217 43.957 100.219 43.7863C100.816 43.5943 101.392 43.4983 101.947 43.4983H109.019V40.5223C109.019 39.989 108.848 39.509 108.507 39.0823C108.187 38.6343 107.632 38.4103 106.843 38.4103H103.099C102.288 38.4103 101.723 38.613 101.403 39.0183C101.104 39.4023 100.955 39.861 100.955 40.3943V40.6503C100.955 41.7597 100.358 42.3143 99.163 42.3143C97.9683 42.3143 97.371 41.7597 97.371 40.6503V40.3623C97.371 39.4877 97.5203 38.7517 97.819 38.1543C98.139 37.557 98.5657 37.0557 99.099 36.6503H99.067C99.6217 36.2877 100.198 35.989 100.795 35.7543C101.414 35.5197 102 35.4023 102.555 35.4023H107.419C107.952 35.4023 108.518 35.5197 109.115 35.7543C109.734 35.989 110.31 36.2877 110.843 36.6503H110.811C111.366 37.0557 111.792 37.589 112.091 38.2503C112.39 38.8903 112.539 39.637 112.539 40.4903V53.3223C112.539 54.3463 111.952 54.8583 110.779 54.8583C110.544 54.8583 110.32 54.8477 110.107 54.8263C109.915 54.805 109.734 54.7517 109.563 54.6663C109.414 54.5597 109.286 54.421 109.179 54.2503C109.094 54.0583 109.051 53.813 109.051 53.5143L109.019 46.5063H102.555C102.086 46.5063 101.723 46.5597 101.467 46.6663C101.211 46.773 101.008 46.9437 100.859 47.1783C100.688 47.541 100.56 47.829 100.475 48.0423C100.411 48.2343 100.379 48.4583 100.379 48.7143V49.9623C100.379 50.517 100.539 50.9437 100.859 51.2423C101.2 51.5197 101.776 51.6583 102.587 51.6583H106.171C106.96 51.6583 107.355 52.1597 107.355 53.1623C107.355 53.589 107.259 53.9517 107.067 54.2503C106.875 54.5277 106.576 54.6663 106.171 54.6663H101.979ZM132.07 49.5783C132.07 51.3277 131.494 52.6183 130.342 53.4503C129.212 54.261 128.081 54.6663 126.95 54.6663H121.574C120.444 54.6663 119.345 54.261 118.278 53.4503C117.766 53.0237 117.372 52.4903 117.094 51.8503C116.817 51.189 116.678 50.4317 116.678 49.5783V40.4583C116.678 38.7303 117.212 37.4503 118.278 36.6183C118.812 36.2343 119.356 35.9357 119.91 35.7223C120.486 35.4877 121.041 35.3703 121.574 35.3703H126.95C127.462 35.3703 128.028 35.477 128.646 35.6903C129.265 35.8823 129.841 36.149 130.374 36.4903C130.886 36.853 131.292 37.3543 131.59 37.9943C131.91 38.6343 132.07 39.3917 132.07 40.2663V41.8663C132.07 42.8903 131.484 43.4023 130.31 43.4023C129.137 43.4023 128.55 42.8903 128.55 41.8663V40.4903C128.55 39.957 128.38 39.477 128.038 39.0503C127.718 38.6023 127.164 38.3783 126.374 38.3783H122.374C121.585 38.3783 121.02 38.6023 120.678 39.0503C120.358 39.477 120.198 39.957 120.198 40.4903V49.5463C120.198 50.0583 120.358 50.5383 120.678 50.9863C121.02 51.4343 121.585 51.6583 122.374 51.6583H126.374C127.164 51.6583 127.718 51.4343 128.038 50.9863C128.38 50.5383 128.55 50.0583 128.55 49.5463V48.0743C128.55 47.0717 129.137 46.5703 130.31 46.5703C131.484 46.5703 132.07 47.0717 132.07 48.0743V49.5783ZM139.605 49.3223V53.3863C139.605 54.389 139.018 54.8903 137.845 54.8903C136.671 54.8903 136.085 54.389 136.085 53.3863V30.6023C136.085 29.5783 136.671 29.0663 137.845 29.0663C139.018 29.0663 139.605 29.5783 139.605 30.6023V44.1703C140.138 43.5303 140.725 42.8477 141.365 42.1223C142.026 41.3757 142.677 40.629 143.317 39.8823C143.978 39.1143 144.629 38.3677 145.269 37.6423C145.909 36.8957 146.506 36.2023 147.061 35.5623V35.5943C147.445 35.1463 147.829 34.9223 148.213 34.9223C148.426 34.9223 148.629 34.9757 148.821 35.0823C149.034 35.1677 149.258 35.2957 149.493 35.4663H149.461C149.973 35.893 150.229 36.3197 150.229 36.7463C150.229 36.8957 150.197 37.0663 150.133 37.2583C150.069 37.429 149.962 37.5783 149.812 37.7063L139.605 49.3223ZM150.293 52.5223C150.442 52.7997 150.517 53.0877 150.517 53.3863C150.517 53.941 150.197 54.357 149.557 54.6343C149.13 54.8903 148.746 55.0183 148.405 55.0183C148.17 55.0183 147.946 54.933 147.733 54.7623C147.519 54.613 147.349 54.421 147.221 54.1863L144.021 48.0103C143.829 47.6903 143.733 47.3703 143.733 47.0503C143.733 46.517 144.01 46.069 144.565 45.7063C144.714 45.5997 144.863 45.5037 145.013 45.4183C145.183 45.333 145.365 45.269 145.557 45.2263C145.791 45.1837 146.015 45.2263 146.229 45.3543C146.442 45.4823 146.623 45.653 146.773 45.8663L150.293 52.5223ZM166.587 43.1143C166.587 42.069 167.227 41.5463 168.507 41.5463C169.766 41.5463 170.395 42.0477 170.395 43.0503V49.5463C170.395 51.2743 169.819 52.565 168.667 53.4183C168.112 53.8237 167.536 54.1437 166.939 54.3783C166.363 54.5917 165.798 54.6983 165.243 54.6983H158.587C158.032 54.6983 157.456 54.5917 156.859 54.3783C156.283 54.1437 155.718 53.8237 155.163 53.4183C154.608 52.9917 154.182 52.469 153.883 51.8503C153.584 51.2103 153.435 50.4423 153.435 49.5463V34.3463C153.435 33.4717 153.584 32.7143 153.883 32.0743C154.203 31.4343 154.63 30.9117 155.163 30.5063H155.131C155.686 30.1437 156.262 29.845 156.859 29.6103C157.456 29.3757 158.032 29.2583 158.587 29.2583H164.923C165.478 29.2583 166.054 29.3757 166.651 29.6103C167.248 29.845 167.824 30.1437 168.379 30.5063H168.347C169.478 31.3383 170.043 32.6183 170.043 34.3463V36.5543C170.043 37.5783 169.414 38.0903 168.155 38.0903C166.896 38.0903 166.267 37.5783 166.267 36.5543V34.6343C166.267 34.101 166.107 33.6103 165.787 33.1623C165.467 32.7143 164.912 32.4903 164.123 32.4903H159.419C158.608 32.4903 158.043 32.7143 157.723 33.1623C157.403 33.6103 157.243 34.101 157.243 34.6343V49.2903C157.243 49.5677 157.275 49.8343 157.339 50.0903C157.424 50.3463 157.552 50.581 157.723 50.7943C157.894 50.9863 158.118 51.1463 158.395 51.2743C158.672 51.4023 159.014 51.4663 159.419 51.4663H164.443C165.232 51.4663 165.787 51.2423 166.107 50.7943C166.427 50.3463 166.587 49.845 166.587 49.2903V43.1143ZM165.083 42.7623C165.083 43.125 165.008 43.477 164.859 43.8183C164.731 44.1383 164.539 44.4157 164.283 44.6503C164.048 44.885 163.771 45.077 163.451 45.2263C163.131 45.3543 162.779 45.4183 162.395 45.4183C161.67 45.4183 161.051 45.1623 160.539 44.6503C160.027 44.1383 159.771 43.509 159.771 42.7623C159.771 42.037 160.027 41.4183 160.539 40.9063C161.051 40.3943 161.67 40.1383 162.395 40.1383C162.779 40.1383 163.131 40.213 163.451 40.3623C163.771 40.4903 164.048 40.6717 164.283 40.9063C164.539 41.141 164.731 41.4183 164.859 41.7383C165.008 42.0583 165.083 42.3997 165.083 42.7623ZM185.262 35.4023C185.817 35.4023 186.382 35.5197 186.958 35.7543C187.555 35.989 188.131 36.2877 188.686 36.6503H188.654C189.209 37.0557 189.635 37.589 189.934 38.2503C190.233 38.8903 190.382 39.637 190.382 40.4903V49.5783C190.382 51.3277 189.806 52.6183 188.654 53.4503C187.523 54.261 186.393 54.6663 185.262 54.6663H180.142C179.587 54.6663 179.022 54.5703 178.446 54.3783C177.87 54.1863 177.305 53.877 176.75 53.4503C175.598 52.6397 175.022 51.349 175.022 49.5783V40.4903C175.022 39.637 175.171 38.8903 175.47 38.2503C175.769 37.589 176.195 37.0557 176.75 36.6503H176.718C177.251 36.2877 177.817 35.989 178.414 35.7543C179.011 35.5197 179.587 35.4023 180.142 35.4023H185.262ZM184.686 51.6583C185.475 51.6583 186.03 51.4343 186.35 50.9863C186.691 50.5383 186.862 50.0583 186.862 49.5463V40.5223C186.862 39.989 186.691 39.509 186.35 39.0823C186.03 38.6343 185.475 38.4103 184.686 38.4103H180.718C179.929 38.4103 179.363 38.6343 179.022 39.0823C178.702 39.509 178.542 39.989 178.542 40.5223V49.5463C178.542 50.0583 178.702 50.5383 179.022 50.9863C179.363 51.4343 179.929 51.6583 180.718 51.6583H184.686ZM198.044 53.3223C198.044 54.3463 197.458 54.8583 196.284 54.8583C195.09 54.8583 194.492 54.3463 194.492 53.3223V36.8103C194.492 35.7863 195.09 35.2743 196.284 35.2743C197.458 35.2743 198.044 35.7863 198.044 36.8103V53.3223ZM198.716 31.2423C198.716 31.925 198.482 32.501 198.012 32.9703C197.543 33.4397 196.967 33.6743 196.284 33.6743C195.602 33.6743 195.015 33.4397 194.524 32.9703C194.055 32.501 193.82 31.925 193.82 31.2423C193.82 30.5383 194.055 29.9517 194.524 29.4823C195.015 29.013 195.602 28.7783 196.284 28.7783C196.967 28.7783 197.543 29.013 198.012 29.4823C198.482 29.9517 198.716 30.5383 198.716 31.2423ZM206.011 53.3223C206.011 54.3463 205.424 54.8583 204.251 54.8583C203.077 54.8583 202.491 54.3463 202.491 53.3223V40.4583C202.491 39.5837 202.629 38.8263 202.907 38.1863C203.184 37.5463 203.621 37.0237 204.219 36.6183C205.349 35.8077 206.48 35.4023 207.611 35.4023H212.763C213.851 35.4023 214.981 35.8077 216.155 36.6183C217.307 37.429 217.883 38.709 217.883 40.4583V53.3223C217.883 54.3463 217.296 54.8583 216.123 54.8583C214.949 54.8583 214.363 54.3463 214.363 53.3223V40.7463C214.363 40.1917 214.192 39.6583 213.851 39.1463L213.883 39.1783C213.605 38.6663 213.04 38.4103 212.187 38.4103H208.187C207.312 38.4103 206.736 38.6663 206.459 39.1783C206.16 39.6263 206.011 40.149 206.011 40.7463V53.3223Z" fill="white"/>
<line x1="3" y1="1.70987" x2="246.629" y2="1.70987" stroke="white" stroke-width="3"/>
<line x1="45.369" y1="84.6313" x2="289" y2="84.6313" stroke="white" stroke-width="3"/>
<line x1="287.499" y1="86.6663" x2="287.499" y2="28.8888" stroke="white" stroke-width="3"/>
<line x1="1.5" y1="57.7775" x2="1.5" stroke="white" stroke-width="3"/>
</svg>
